<?xml version="1.0" standalone="no"?>
<!DOCTYPE svg PUBLIC "-//W3C//DTD SVG 20010904//EN"
 "http://www.w3.org/TR/2001/REC-SVG-20010904/DTD/svg10.dtd">
<svg version="1.0" xmlns="http://www.w3.org/2000/svg"
 width="114.000000pt" height="64.000000pt" viewBox="0 0 114.000000 64.000000"
 preserveAspectRatio="xMidYMid meet">

<g transform="translate(0.000000,64.000000) scale(0.100000,-0.100000)"
fill="#000000" stroke="none">
<path d="M130 528 c-26 -42 -37 -84 -51 -183 -12 -93 -9 -167 7 -172 7 -2 25
20 42 49 16 29 39 62 51 73 l22 19 -10 -28 c-12 -30 -14 -76 -5 -100 8 -20 54
-21 80 -2 16 13 21 13 36 0 9 -9 30 -14 49 -12 45 4 74 46 73 104 -1 48 5 53
29 26 12 -13 17 -37 17 -75 0 -49 3 -57 19 -57 14 0 28 18 49 63 l30 62 -5
-63 c-6 -62 -5 -64 17 -60 18 2 28 16 46 63 l23 60 0 -47 c1 -25 4 -53 7 -62
8 -21 52 -20 76 1 17 15 19 15 36 0 23 -21 74 -22 111 -2 26 13 30 13 41 0 20
-24 73 -18 101 11 19 20 24 37 24 75 0 27 1 49 3 49 2 0 19 -12 38 -26 23 -18
34 -22 34 -12 0 7 -19 28 -42 46 -56 43 -107 44 -149 3 -19 -20 -29 -40 -29
-60 0 -35 -30 -61 -72 -61 -40 0 -41 14 -4 34 43 23 60 57 44 91 -8 19 -19 25
-43 25 -42 0 -75 -36 -82 -89 -4 -26 -13 -45 -24 -51 -27 -15 -32 3 -24 76 6
59 5 64 -13 64 -12 0 -30 -16 -46 -40 -14 -22 -27 -40 -29 -40 -1 0 -1 18 1
40 4 34 1 40 -15 40 -12 0 -28 -15 -42 -40 -12 -22 -24 -40 -27 -40 -2 0 -1
18 2 40 6 36 4 40 -15 40 -14 0 -23 -8 -27 -25 l-6 -25 -30 25 c-65 54 -153
22 -167 -61 -7 -45 -46 -78 -57 -49 -4 10 1 41 11 70 28 83 8 96 -55 39 l-40
-37 37 78 c23 49 38 98 41 131 l4 54 -36 0 c-30 0 -40 -5 -56 -32z m30 -115
c-40 -100 -49 -109 -38 -36 10 67 25 110 47 137 16 18 16 18 19 -2 2 -11 -11
-56 -28 -99z m230 -138 c0 -18 -8 -43 -19 -56 -16 -20 -21 -21 -35 -10 -23 19
-20 77 5 102 26 26 49 10 49 -36z m447 40 c5 -16 -22 -55 -39 -55 -12 0 -10
44 4 58 16 16 27 15 35 -3z m173 -39 c0 -32 -23 -76 -40 -76 -17 0 -31 41 -25
71 15 67 65 71 65 5z"/>
</g>
</svg>
